<svg id="visual" viewBox="0 0 960 540" width="960" height="540" xmlns="http://www.w3.org/2000/svg" xmlns:xlink="http://www.w3.org/1999/xlink" version="1.1"><g stroke-width="1" stroke-linejoin="bevel"><path d="M529.3 260L670 203L542.3 179Z" fill="#aac7d5" stroke="#aac7d5"></path><path d="M529.3 260L675 272L670 203Z" fill="#acc8d7" stroke="#acc8d7"></path><path d="M755.7 236L709.7 157L670 203Z" fill="#afcad8" stroke="#afcad8"></path><path d="M670 203L651 51L542.3 179Z" fill="#afcad8" stroke="#afcad8"></path><path d="M529.3 260L630 363L675 272Z" fill="#bdd3e2" stroke="#bdd3e2"></path><path d="M529.3 260L560.3 373L630 363Z" fill="#c2d6e5" stroke="#c2d6e5"></path><path d="M722.7 391L755.7 236L675 272Z" fill="#c2d6e5" stroke="#c2d6e5"></path><path d="M675 272L755.7 236L670 203Z" fill="#bdd3e2" stroke="#bdd3e2"></path><path d="M784.7 50L651 51L709.7 157Z" fill="#afcad8" stroke="#afcad8"></path><path d="M709.7 157L651 51L670 203Z" fill="#b4cddb" stroke="#b4cddb"></path><path d="M420.7 308L433.7 329L529.3 260Z" fill="#b8d0df" stroke="#b8d0df"></path><path d="M529.3 260L433.7 329L560.3 373Z" fill="#b8d0df" stroke="#b8d0df"></path><path d="M651 51L514.3 55L542.3 179Z" fill="#acc8d7" stroke="#acc8d7"></path><path d="M396.7 144L420.7 308L529.3 260Z" fill="#c0d4e3" stroke="#c0d4e3"></path><path d="M396.7 144L529.3 260L542.3 179Z" fill="#c0d4e3" stroke="#c0d4e3"></path><path d="M650 453L722.7 391L630 363Z" fill="#bbd1e0" stroke="#bbd1e0"></path><path d="M630 363L722.7 391L675 272Z" fill="#b1cbda" stroke="#b1cbda"></path><path d="M853.3 289L813.3 194L755.7 236Z" fill="#bbd1e0" stroke="#bbd1e0"></path><path d="M755.7 236L813.3 194L709.7 157Z" fill="#acc8d7" stroke="#acc8d7"></path><path d="M514.3 55L396.7 144L542.3 179Z" fill="#b1cbda" stroke="#b1cbda"></path><path d="M567.3 483L650 453L560.3 373Z" fill="#acc8d7" stroke="#acc8d7"></path><path d="M560.3 373L650 453L630 363Z" fill="#c0d4e3" stroke="#c0d4e3"></path><path d="M741.7 0L646 0L651 51Z" fill="#b6cedd" stroke="#b6cedd"></path><path d="M651 51L646 0L514.3 55Z" fill="#acc8d7" stroke="#acc8d7"></path><path d="M813.3 194L815.3 109L709.7 157Z" fill="#bdd3e2" stroke="#bdd3e2"></path><path d="M646 0L498.3 0L514.3 55Z" fill="#b4cddb" stroke="#b4cddb"></path><path d="M514.3 55L406.7 53L396.7 144Z" fill="#acc8d7" stroke="#acc8d7"></path><path d="M650 453L724.7 449L722.7 391Z" fill="#afcad8" stroke="#afcad8"></path><path d="M722.7 391L853.3 289L755.7 236Z" fill="#c0d4e3" stroke="#c0d4e3"></path><path d="M465.7 475L567.3 483L560.3 373Z" fill="#b8d0df" stroke="#b8d0df"></path><path d="M650 453L709.7 540L724.7 449Z" fill="#bdd3e2" stroke="#bdd3e2"></path><path d="M815.3 109L784.7 50L709.7 157Z" fill="#bdd3e2" stroke="#bdd3e2"></path><path d="M498.3 0L406.7 53L514.3 55Z" fill="#b4cddb" stroke="#b4cddb"></path><path d="M886.3 349L853.3 289L722.7 391Z" fill="#acc8d7" stroke="#acc8d7"></path><path d="M813.3 194L960 166L815.3 109Z" fill="#acc8d7" stroke="#acc8d7"></path><path d="M420.7 308L311 363L433.7 329Z" fill="#aac7d5" stroke="#aac7d5"></path><path d="M433.7 329L465.7 475L560.3 373Z" fill="#b4cddb" stroke="#b4cddb"></path><path d="M396.7 144L334 237L420.7 308Z" fill="#afcad8" stroke="#afcad8"></path><path d="M333 198L334 237L396.7 144Z" fill="#b4cddb" stroke="#b4cddb"></path><path d="M328 108L333 198L396.7 144Z" fill="#afcad8" stroke="#afcad8"></path><path d="M784.7 50L741.7 0L651 51Z" fill="#aac7d5" stroke="#aac7d5"></path><path d="M311 363L465.7 475L433.7 329Z" fill="#b6cedd" stroke="#b6cedd"></path><path d="M498.3 0L415.7 0L406.7 53Z" fill="#acc8d7" stroke="#acc8d7"></path><path d="M406.7 53L328 108L396.7 144Z" fill="#bbd1e0" stroke="#bbd1e0"></path><path d="M292 0L328 108L406.7 53Z" fill="#acc8d7" stroke="#acc8d7"></path><path d="M208.3 353L311 363L188.3 257Z" fill="#bdd3e2" stroke="#bdd3e2"></path><path d="M864.3 472L886.3 349L722.7 391Z" fill="#acc8d7" stroke="#acc8d7"></path><path d="M853.3 289L960 166L813.3 194Z" fill="#b8d0df" stroke="#b8d0df"></path><path d="M566.3 540L623 540L567.3 483Z" fill="#aac7d5" stroke="#aac7d5"></path><path d="M567.3 483L623 540L650 453Z" fill="#bdd3e2" stroke="#bdd3e2"></path><path d="M724.7 449L864.3 472L722.7 391Z" fill="#b4cddb" stroke="#b4cddb"></path><path d="M465.7 475L566.3 540L567.3 483Z" fill="#c2d6e5" stroke="#c2d6e5"></path><path d="M815.3 109L817.3 0L784.7 50Z" fill="#b8d0df" stroke="#b8d0df"></path><path d="M784.7 50L817.3 0L741.7 0Z" fill="#b1cbda" stroke="#b1cbda"></path><path d="M960 102L817.3 0L815.3 109Z" fill="#b6cedd" stroke="#b6cedd"></path><path d="M188.3 257L334 237L333 198Z" fill="#b1cbda" stroke="#b1cbda"></path><path d="M334 237L311 363L420.7 308Z" fill="#b4cddb" stroke="#b4cddb"></path><path d="M623 540L709.7 540L650 453Z" fill="#acc8d7" stroke="#acc8d7"></path><path d="M320 486L439.7 540L465.7 475Z" fill="#b6cedd" stroke="#b6cedd"></path><path d="M465.7 475L439.7 540L566.3 540Z" fill="#c0d4e3" stroke="#c0d4e3"></path><path d="M709.7 540L864.3 472L724.7 449Z" fill="#b1cbda" stroke="#b1cbda"></path><path d="M960 309L853.3 289L886.3 349Z" fill="#bbd1e0" stroke="#bbd1e0"></path><path d="M960 309L960 166L853.3 289Z" fill="#acc8d7" stroke="#acc8d7"></path><path d="M960 383L960 309L886.3 349Z" fill="#bdd3e2" stroke="#bdd3e2"></path><path d="M311 363L320 486L465.7 475Z" fill="#c2d6e5" stroke="#c2d6e5"></path><path d="M960 166L960 102L815.3 109Z" fill="#afcad8" stroke="#afcad8"></path><path d="M415.7 0L292 0L406.7 53Z" fill="#b1cbda" stroke="#b1cbda"></path><path d="M328 108L225.3 120L333 198Z" fill="#b4cddb" stroke="#b4cddb"></path><path d="M292 0L225.3 120L328 108Z" fill="#bdd3e2" stroke="#bdd3e2"></path><path d="M311 363L206.3 445L320 486Z" fill="#b4cddb" stroke="#b4cddb"></path><path d="M960 447L960 383L886.3 349Z" fill="#bbd1e0" stroke="#bbd1e0"></path><path d="M188.3 257L311 363L334 237Z" fill="#aac7d5" stroke="#aac7d5"></path><path d="M179.3 184L188.3 257L333 198Z" fill="#b6cedd" stroke="#b6cedd"></path><path d="M199.3 540L323 540L320 486Z" fill="#b4cddb" stroke="#b4cddb"></path><path d="M320 486L323 540L439.7 540Z" fill="#b6cedd" stroke="#b6cedd"></path><path d="M889.3 540L960 447L864.3 472Z" fill="#b4cddb" stroke="#b4cddb"></path><path d="M864.3 472L960 447L886.3 349Z" fill="#b4cddb" stroke="#b4cddb"></path><path d="M91.7 98L179.3 184L225.3 120Z" fill="#bdd3e2" stroke="#bdd3e2"></path><path d="M225.3 120L179.3 184L333 198Z" fill="#afcad8" stroke="#afcad8"></path><path d="M709.7 540L889.3 540L864.3 472Z" fill="#c0d4e3" stroke="#c0d4e3"></path><path d="M960 102L960 0L817.3 0Z" fill="#c2d6e5" stroke="#c2d6e5"></path><path d="M292 0L235.3 0L225.3 120Z" fill="#acc8d7" stroke="#acc8d7"></path><path d="M143.7 443L206.3 445L208.3 353Z" fill="#acc8d7" stroke="#acc8d7"></path><path d="M208.3 353L206.3 445L311 363Z" fill="#b1cbda" stroke="#b1cbda"></path><path d="M92.7 361L208.3 353L188.3 257Z" fill="#c0d4e3" stroke="#c0d4e3"></path><path d="M889.3 540L960 540L960 447Z" fill="#aac7d5" stroke="#aac7d5"></path><path d="M179.3 184L101.7 256L188.3 257Z" fill="#bdd3e2" stroke="#bdd3e2"></path><path d="M73.7 179L101.7 256L179.3 184Z" fill="#acc8d7" stroke="#acc8d7"></path><path d="M92.7 361L143.7 443L208.3 353Z" fill="#bdd3e2" stroke="#bdd3e2"></path><path d="M206.3 445L199.3 540L320 486Z" fill="#b4cddb" stroke="#b4cddb"></path><path d="M143.7 443L199.3 540L206.3 445Z" fill="#b4cddb" stroke="#b4cddb"></path><path d="M101.7 256L92.7 361L188.3 257Z" fill="#afcad8" stroke="#afcad8"></path><path d="M143.7 443L128.7 540L199.3 540Z" fill="#bbd1e0" stroke="#bbd1e0"></path><path d="M235.3 0L91.7 98L225.3 120Z" fill="#b8d0df" stroke="#b8d0df"></path><path d="M101.7 256L0 351L92.7 361Z" fill="#b1cbda" stroke="#b1cbda"></path><path d="M91.7 98L73.7 179L179.3 184Z" fill="#b1cbda" stroke="#b1cbda"></path><path d="M235.3 0L98.7 0L91.7 98Z" fill="#c2d6e5" stroke="#c2d6e5"></path><path d="M0 197L0 235L73.7 179Z" fill="#afcad8" stroke="#afcad8"></path><path d="M0 463L128.7 540L143.7 443Z" fill="#aac7d5" stroke="#aac7d5"></path><path d="M73.7 179L0 235L101.7 256Z" fill="#b8d0df" stroke="#b8d0df"></path><path d="M92.7 361L0 463L143.7 443Z" fill="#b1cbda" stroke="#b1cbda"></path><path d="M0 197L73.7 179L0 90Z" fill="#c2d6e5" stroke="#c2d6e5"></path><path d="M0 90L73.7 179L91.7 98Z" fill="#c2d6e5" stroke="#c2d6e5"></path><path d="M0 235L0 351L101.7 256Z" fill="#c0d4e3" stroke="#c0d4e3"></path><path d="M98.7 0L0 90L91.7 98Z" fill="#b6cedd" stroke="#b6cedd"></path><path d="M98.7 0L0 0L0 90Z" fill="#bdd3e2" stroke="#bdd3e2"></path><path d="M0 351L0 463L92.7 361Z" fill="#acc8d7" stroke="#acc8d7"></path><path d="M0 463L0 540L128.7 540Z" fill="#c0d4e3" stroke="#c0d4e3"></path></g></svg>