<svg id="visual" viewBox="0 0 450 900" width="450" height="900" xmlns="http://www.w3.org/2000/svg" xmlns:xlink="http://www.w3.org/1999/xlink" version="1.1"><path d="M0 286L9.3 286C18.7 286 37.3 286 56.2 273.5C75 261 94 236 112.8 220.3C131.7 204.7 150.3 198.3 169 200.2C187.7 202 206.3 212 225 225C243.7 238 262.3 254 281.2 255.7C300 257.3 319 244.7 337.8 247.5C356.7 250.3 375.3 268.7 394 279.3C412.7 290 431.3 293 440.7 294.5L450 296L450 0L440.7 0C431.3 0 412.7 0 394 0C375.3 0 356.7 0 337.8 0C319 0 300 0 281.2 0C262.3 0 243.7 0 225 0C206.3 0 187.7 0 169 0C150.3 0 131.7 0 112.8 0C94 0 75 0 56.2 0C37.3 0 18.7 0 9.3 0L0 0Z" fill="#3bca17"></path><path d="M0 152L9.3 152.7C18.7 153.3 37.3 154.7 56.2 169.2C75 183.7 94 211.3 112.8 218.5C131.7 225.7 150.3 212.3 169 210.8C187.7 209.3 206.3 219.7 225 226.7C243.7 233.7 262.3 237.3 281.2 227.5C300 217.7 319 194.3 337.8 191.3C356.7 188.3 375.3 205.7 394 212.7C412.7 219.7 431.3 216.3 440.7 214.7L450 213L450 0L440.7 0C431.3 0 412.7 0 394 0C375.3 0 356.7 0 337.8 0C319 0 300 0 281.2 0C262.3 0 243.7 0 225 0C206.3 0 187.7 0 169 0C150.3 0 131.7 0 112.8 0C94 0 75 0 56.2 0C37.3 0 18.7 0 9.3 0L0 0Z" fill="#3fc239"></path><path d="M0 129L9.3 132.2C18.7 135.3 37.3 141.7 56.2 150.2C75 158.7 94 169.3 112.8 175.3C131.7 181.3 150.3 182.7 169 177C187.7 171.3 206.3 158.7 225 157.2C243.7 155.7 262.3 165.3 281.2 168.5C300 171.7 319 168.3 337.8 160.3C356.7 152.3 375.3 139.7 394 132.5C412.7 125.3 431.3 123.7 440.7 122.8L450 122L450 0L440.7 0C431.3 0 412.7 0 394 0C375.3 0 356.7 0 337.8 0C319 0 300 0 281.2 0C262.3 0 243.7 0 225 0C206.3 0 187.7 0 169 0C150.3 0 131.7 0 112.8 0C94 0 75 0 56.2 0C37.3 0 18.7 0 9.3 0L0 0Z" fill="#46ba4d"></path><path d="M0 107L9.3 109.2C18.7 111.3 37.3 115.7 56.2 114.3C75 113 94 106 112.8 100.7C131.7 95.3 150.3 91.7 169 96.2C187.7 100.7 206.3 113.3 225 119.2C243.7 125 262.3 124 281.2 121.3C300 118.7 319 114.3 337.8 112C356.7 109.7 375.3 109.3 394 107.2C412.7 105 431.3 101 440.7 99L450 97L450 0L440.7 0C431.3 0 412.7 0 394 0C375.3 0 356.7 0 337.8 0C319 0 300 0 281.2 0C262.3 0 243.7 0 225 0C206.3 0 187.7 0 169 0C150.3 0 131.7 0 112.8 0C94 0 75 0 56.2 0C37.3 0 18.7 0 9.3 0L0 0Z" fill="#4eb15c"></path><path d="M0 62L9.3 57.2C18.7 52.3 37.3 42.7 56.2 42.8C75 43 94 53 112.8 56.7C131.7 60.3 150.3 57.7 169 54.7C187.7 51.7 206.3 48.3 225 50.3C243.7 52.3 262.3 59.7 281.2 65.2C300 70.7 319 74.3 337.8 72.5C356.7 70.7 375.3 63.3 394 62C412.7 60.7 431.3 65.3 440.7 67.7L450 70L450 0L440.7 0C431.3 0 412.7 0 394 0C375.3 0 356.7 0 337.8 0C319 0 300 0 281.2 0C262.3 0 243.7 0 225 0C206.3 0 187.7 0 169 0C150.3 0 131.7 0 112.8 0C94 0 75 0 56.2 0C37.3 0 18.7 0 9.3 0L0 0Z" fill="#57a868"></path></svg>