<svg id="visual" viewBox="0 0 900 900" width="900" height="900" xmlns="http://www.w3.org/2000/svg" xmlns:xlink="http://www.w3.org/1999/xlink" version="1.1"><rect x="0" y="0" width="900" height="900" fill="#ffffff"></rect><path d="M0 363L21.5 360.5C43 358 86 353 128.8 340C171.7 327 214.3 306 257.2 310C300 314 343 343 385.8 347.7C428.7 352.3 471.3 332.7 514.2 328.8C557 325 600 337 642.8 337.8C685.7 338.7 728.3 328.3 771.2 327.2C814 326 857 334 878.5 338L900 342L900 0L878.5 0C857 0 814 0 771.2 0C728.3 0 685.7 0 642.8 0C600 0 557 0 514.2 0C471.3 0 428.7 0 385.8 0C343 0 300 0 257.2 0C214.3 0 171.7 0 128.8 0C86 0 43 0 21.5 0L0 0Z" fill="#aeeb9f"></path><path d="M0 279L21.5 281.7C43 284.3 86 289.7 128.8 286.8C171.7 284 214.3 273 257.2 257.2C300 241.3 343 220.7 385.8 220.2C428.7 219.7 471.3 239.3 514.2 241.5C557 243.7 600 228.3 642.8 230.8C685.7 233.3 728.3 253.7 771.2 256.2C814 258.7 857 243.3 878.5 235.7L900 228L900 0L878.5 0C857 0 814 0 771.2 0C728.3 0 685.7 0 642.8 0C600 0 557 0 514.2 0C471.3 0 428.7 0 385.8 0C343 0 300 0 257.2 0C214.3 0 171.7 0 128.8 0C86 0 43 0 21.5 0L0 0Z" fill="#96e383"></path><path d="M0 163L21.5 161.7C43 160.3 86 157.7 128.8 156.2C171.7 154.7 214.3 154.3 257.2 155.2C300 156 343 158 385.8 162.7C428.7 167.3 471.3 174.7 514.2 171.7C557 168.7 600 155.3 642.8 154.2C685.7 153 728.3 164 771.2 167.7C814 171.3 857 167.7 878.5 165.8L900 164L900 0L878.5 0C857 0 814 0 771.2 0C728.3 0 685.7 0 642.8 0C600 0 557 0 514.2 0C471.3 0 428.7 0 385.8 0C343 0 300 0 257.2 0C214.3 0 171.7 0 128.8 0C86 0 43 0 21.5 0L0 0Z" fill="#7cdb65"></path><path d="M0 114L21.5 118.3C43 122.7 86 131.3 128.8 129C171.7 126.7 214.3 113.3 257.2 115.5C300 117.7 343 135.3 385.8 136C428.7 136.7 471.3 120.3 514.2 120.3C557 120.3 600 136.7 642.8 134.5C685.7 132.3 728.3 111.7 771.2 108C814 104.3 857 117.7 878.5 124.3L900 131L900 0L878.5 0C857 0 814 0 771.2 0C728.3 0 685.7 0 642.8 0C600 0 557 0 514.2 0C471.3 0 428.7 0 385.8 0C343 0 300 0 257.2 0C214.3 0 171.7 0 128.8 0C86 0 43 0 21.5 0L0 0Z" fill="#5fd345"></path><path d="M0 100L21.5 98.5C43 97 86 94 128.8 89.3C171.7 84.7 214.3 78.3 257.2 74C300 69.7 343 67.3 385.8 64.7C428.7 62 471.3 59 514.2 66.2C557 73.3 600 90.7 642.8 93.8C685.7 97 728.3 86 771.2 80.3C814 74.7 857 74.3 878.5 74.2L900 74L900 0L878.5 0C857 0 814 0 771.2 0C728.3 0 685.7 0 642.8 0C600 0 557 0 514.2 0C471.3 0 428.7 0 385.8 0C343 0 300 0 257.2 0C214.3 0 171.7 0 128.8 0C86 0 43 0 21.5 0L0 0Z" fill="#3bca17"></path></svg>